<svg xmlns="http://www.w3.org/2000/svg" viewBox="0 0 360 96" role="img" aria-labelledby="title desc">
  <title id="title">Musta Digital</title>
  <desc id="desc">Angular blue M mark with Musta Digital wordmark.</desc>
  <defs>
    <linearGradient id="brandMark" x1="0" x2="1" y1="0" y2="1">
      <stop offset="0" stop-color="#42A5FF"/>
      <stop offset="0.48" stop-color="#1565FF"/>
      <stop offset="1" stop-color="#031B78"/>
    </linearGradient>
    <linearGradient id="shine" x1="0" x2="1" y1="0" y2="0">
      <stop offset="0" stop-color="#FFFFFF"/>
      <stop offset="1" stop-color="#B3B8C5"/>
    </linearGradient>
  </defs>
  <rect width="360" height="96" fill="none"/>
  <g transform="translate(8 13)">
    <path fill="url(#brandMark)" d="M0 70V0l45 39L90 0v70H68V39L45 59 22 39v31H0Z"/>
    <path fill="#031B78" opacity=".55" d="M14 70V30l31 27 31-27v40H61V56L45 70 29 56v14H14Z"/>
    <path fill="#42A5FF" opacity=".95" d="M7 0l38 33L83 0 45 45 7 0Z"/>
  </g>
  <g transform="translate(122 26)">
    <text x="0" y="24" fill="url(#shine)" font-size="28" font-family="Inter, Arial, sans-serif" font-weight="800">MUSTA</text>
    <text x="0" y="57" fill="#42A5FF" font-size="18" font-family="Inter, Arial, sans-serif" font-weight="700">DIGITAL</text>
  </g>
</svg>
